<svg xmlns="http://www.w3.org/2000/svg" xmlns:xlink="http://www.w3.org/1999/xlink" width="512" height="512" viewBox="0 0 512 512" xml:space="preserve">
<g opacity=".92">
<path fill="#FFF" d="M6 6v410h193.346l.099 90H506V117.897L405.392 6z"/>
</g>
<g opacity=".92">
<path fill="#FFF" d="M6 6v410h193.346l.099 90H506V117.897L405.392 6z"/>
</g>
<linearGradient id="a" gradientUnits="userSpaceOnUse" x1="237.512" y1="258.853" x2="285.802" y2="-15.018">
<stop offset="0" stop-color="#b46858"/>
<stop offset="1" stop-color="#ad363f"/>
</linearGradient>
<path fill="url(#a)" d="m405 6 101 112.353V302L6 218.031V6z"/>
<linearGradient id="b" gradientUnits="userSpaceOnUse" x1="257.102" y1="339.344" x2="254.486" y2="189.427">
<stop offset="0" stop-color="#550900"/>
<stop offset="1" stop-color="#86363f"/>
</linearGradient>
<path fill="url(#b)" d="M506 301.347V335L6 251.031v-57.266z"/>
<linearGradient id="c" gradientUnits="userSpaceOnUse" x1="151.876" y1="387.95" x2="354.742" y2="48.562">
<stop offset="0" stop-color="#ad6250"/>
<stop offset="1" stop-color="#962832"/>
</linearGradient>
<path fill="url(#c)" d="M433.954 80.183c4.761 0 4.767-.169 6.128 1.191s16.937 229.502 16.937 229.502 3.14 48.456 1.956 52.025c-1.237 3.731-10.042 3.574-10.042 3.574l-405.16 16.75s-4.333-.786-4.71-1.953c-1.868-5.776-9.017-127.65-9.357-131.05-.34-3.401-7.307-129.45-7.307-130.81 0-2.571 0-6.379 3.741-7.142 2.687-.548 182.935-15.644 194.681-16.324 11.746-.679 213.133-15.763 213.133-15.763z"/>
<path fill="#003A5B" d="M409.251 0H0v422h193v90h319V115L409.251 0zM506 506H199.188l-.099-90H6V6h399.135L506 118.353V506z"/>
<path fill="#004E70" d="M0 428h187v84H0z"/>
<g fill="#FFF">
<path d="M60.204 460.405v-22.507h8.816c3.453 0 6.027.933 7.724 2.797 1.696 1.863 2.544 4.69 2.544 8.479 0 2.058-.313 3.871-.939 5.439-.627 1.569-1.535 2.832-2.728 3.789-.896.714-1.915 1.226-3.056 1.536s-2.74.466-4.798.466h-7.563zm4.538-4.064h3.713c2.149 0 3.705-.563 4.668-1.688.963-1.125 1.444-2.951 1.444-5.478 0-2.516-.449-4.364-1.345-5.546-.896-1.182-2.298-1.772-4.202-1.772h-4.278v14.484zm18.213 4.064v-22.507h16.349v3.912h-11.78v4.798h10.771v3.85H87.523v5.791h12.331v4.156H82.955zm19.39-6.952h4.568c.174 1.232.678 2.146 1.513 2.743.836.596 2.043.894 3.622.894 1.344 0 2.357-.239 3.04-.719.683-.479 1.023-1.187 1.023-2.123 0-1.365-1.961-2.496-5.882-3.393-.052-.01-.098-.021-.138-.03-.103-.021-.26-.056-.474-.107-2.099-.458-3.596-.973-4.492-1.543a4.964 4.964 0 0 1-1.818-2.055c-.418-.861-.627-1.877-.627-3.049 0-2.189.744-3.868 2.231-5.034s3.637-1.75 6.447-1.75c2.629 0 4.684.622 6.166 1.864 1.481 1.243 2.264 2.995 2.345 5.257h-4.446c-.081-1.09-.499-1.92-1.253-2.491-.754-.57-1.828-.855-3.224-.855-1.212 0-2.146.237-2.804.711s-.985 1.148-.985 2.024c0 1.191 1.278 2.083 3.835 2.674l1.619.382c1.641.418 2.805.743 3.492.978s1.285.494 1.795.779c.917.51 1.604 1.185 2.063 2.024.459.841.688 1.847.688 3.018 0 2.344-.789 4.159-2.368 5.447-1.579 1.289-3.805 1.933-6.677 1.933-2.832 0-5.053-.656-6.662-1.971-1.609-1.314-2.475-3.183-2.597-5.608zm22.064 6.952v-22.507h4.629v22.507h-4.629zm25.654-2.658c-.835 1.13-1.785 1.961-2.85 2.49s-2.314.794-3.751.794c-3.147 0-5.697-1.092-7.647-3.277-1.95-2.185-2.926-5.055-2.926-8.609 0-3.586.973-6.453 2.918-8.603s4.538-3.224 7.777-3.224c2.821 0 5.124.675 6.906 2.024s2.842 3.206 3.179 5.569h-4.722c-.285-1.172-.868-2.063-1.75-2.674-.881-.611-2.029-.917-3.445-.917-1.885 0-3.364.69-4.438 2.07-1.075 1.381-1.612 3.288-1.612 5.723 0 2.444.561 4.359 1.681 5.744 1.121 1.386 2.659 2.078 4.615 2.078 1.467 0 2.693-.433 3.682-1.299.988-.865 1.6-2.052 1.834-3.56h-5.104v-3.851h9.32v12.178h-3.102l-.565-2.656zm8.113 2.658v-22.507h4.844l9.137 15.463v-15.463h4.569v22.507h-4.783l-9.198-15.463v15.463h-4.569zM32.273 486.176v-22.507h16.349v3.912h-11.78v4.798h10.771v3.85H36.842v5.791h12.331v4.156h-16.9zm17.955 0 7.074-11.49-7.074-11.017h5.348l4.599 7.869 4.568-7.869h5.379l-7.074 10.986 7.074 11.521h-5.348l-4.6-7.793-4.599 7.793h-5.347zm26.722 0v-18.488h-6.677v-4.019h17.938v4.019H81.58v18.488h-4.63zm13.935 0v-22.507h10.91c2.454 0 4.272.525 5.454 1.574s1.772 2.653 1.772 4.813c0 1.376-.288 2.521-.863 3.438s-1.403 1.543-2.482 1.879c.978.347 1.673.876 2.085 1.589.413.714.649 1.824.711 3.331l.092 2.659v.092c.03 1.344.32 2.159.871 2.444v.688h-5.073a4.23 4.23 0 0 1-.374-1.169 10.963 10.963 0 0 1-.161-1.658l-.061-2.368c-.051-1.396-.313-2.338-.787-2.826-.474-.489-1.327-.733-2.56-.733h-4.904v8.755h-4.63zm4.63-12.667h5.439c1.182 0 2.05-.239 2.605-.718.555-.479.832-1.232.832-2.262 0-.978-.27-1.719-.81-2.223s-1.345-.757-2.414-.757h-5.653v5.96zm17.709 12.667v-22.507h16.349v3.912h-11.78v4.798h10.771v3.85h-10.771v5.791h12.331v4.156h-16.9zm20.428 0v-22.507h6.846l4.477 17.129 4.416-17.129h6.875v22.507h-4.339v-18.152l-4.568 18.152h-4.737l-4.629-18.152v18.152h-4.341zm27.289 0v-22.507h16.349v3.912h-11.78v4.798h10.771v3.85H165.51v5.791h12.331v4.156h-16.9z"/>
</g>
<path fill="#FFF" d="M0 421.875h193V512h-6.212v-84.295H0z"/>
<g>
<defs>
<path id="d" d="M6 6h399l101 112.353V506H199v-90H6z"/>
</defs>
<clipPath id="e">
<use xlink:href="#d" overflow="visible"/>
</clipPath>
<g clip-path="url(#e)">
<linearGradient id="f" gradientUnits="userSpaceOnUse" x1="143.31" y1="183.513" x2="422.148" y2="318.68">
<stop offset="0" stop-color="#c8c3be"/>
<stop offset=".994" stop-color="#b4a090"/>
</linearGradient>
<path fill="url(#f)" d="M429.579 83.183c11.58-.884 6.642-.506 6.642-.506s1.121-.675 2.242 1.799 17.906 274.65 17.906 274.65.121 2.612-1.207 3.298c-.824.425-8.31 1.147-11.647 1.147-.622 0-397.875 19.349-398.364 15.732-2.438-18.033 17.159-23.595 24.568-24.748 6.798-1.058 367.665 1.303 365.92-24.156-2.191-31.993-15.491-246.496-6.06-247.216z"/>
<linearGradient id="g" gradientUnits="userSpaceOnUse" x1="28.073" y1="129.356" x2="403.266" y2="311.231">
<stop offset="0" stop-color="#fafaf0"/>
<stop offset=".202" stop-color="#f1f1e9"/>
<stop offset=".492" stop-color="#dcdbda"/>
<stop offset=".865" stop-color="#d5d4d0"/>
<stop offset=".994" stop-color="#cfcbbf"/>
</linearGradient>
<path fill="url(#g)" d="M25.17 116.682c.225-1.126-.45-.676 1.576-2.027 2.027-1.351 405.581-31.978 405.581-31.978s1.126-.676 2.252 1.802c1.126 2.477 17.984 275.007 17.984 275.007s.122 2.615-1.212 3.302c-.827.426-8.353.932-11.697 1.148-50.567 3.279-249.446 11.088-249.446 11.088L44.28 379.979s-2.477-.676-2.928-1.351c-.45-.676-13.061-200.651-13.061-200.651l-3.121-61.295zm13.833 16.514c.097 4.181 2.228 6.985 5.144 7.586 3.112-.643 6.55-3.704 6.596-7.051.049-3.54-1.491-7.478-5.806-8.263-2.533.675-6.026 3.734-5.934 7.728zm371.199-26.855c.514 4.527 2.739 7.033 6.43 7.371 3.043-.15 8.26-3.426 8.251-8.058-.007-3.857-2.561-7.955-8.013-8.341-3.094 1.006-7.159 4.703-6.668 9.028z"/>
<linearGradient id="h" gradientUnits="userSpaceOnUse" x1="40.828" y1="125.593" x2="40.828" y2="138.813">
<stop offset="0" stop-color="#88897d"/>
<stop offset=".994" stop-color="#beaa9b"/>
</linearGradient>
<path fill="url(#h)" d="M39.003 133.196c-.093-3.994 3.4-7.052 5.934-7.727a8.499 8.499 0 0 0-1.206-.141c-2.461-.1-7.119 3.265-7.012 7.868.107 4.603 2.676 7.547 6.048 7.708.443.021.908-.024 1.379-.122-2.914-.602-5.045-3.406-5.143-7.586z"/>
<linearGradient id="i" gradientUnits="userSpaceOnUse" x1="412.092" y1="98.342" x2="414.868" y2="114.085">
<stop offset="0" stop-color="#887c7e"/>
<stop offset=".994" stop-color="#b4a090"/>
</linearGradient>
<path fill="url(#i)" d="M410.202 106.341c-.492-4.325 3.574-8.022 6.668-9.028-6.309.008-8.399 5.967-8.263 8.993.188 4.192 3.382 6.903 7.168 7.406-2.934-.89-5.133-3.501-5.573-7.371z"/>
</g>
<g opacity=".1" clip-path="url(#e)">
<g fill="#0D0D0D">
<path d="M208.688 201.228c-2.916.141-9.501-1.201-11.131-4.374-1.728-2.302-3.411-24.027-1.064-43.005-3.042.195-19.695 35.597-21.811 44.4-2.452.712-8.997-3.17-9.308-4.862-.693-3.575 1.652-18.674 2.561-23.72 1.939-10.24 4.638-22.452 6.649-26.866.297-.613.604-.963 1.232-1.138 1.764-.45 6.655 1.395 7.138 2.551-.495.364-.905 1.448-1.704 4.076-1.545 5.049-3.634 14.677-5.025 22.34-.755 3.996-1.49 8.517-2.109 12.766 6.29-13.076 16.509-30.23 21.73-33.684 1.119-.737 7.069.533 9.016 3.666-1.069 9.779-1.017 28.398.174 39.311 1.464-5.6 4.106-13.935 7.716-23.743 4.596-12.632 14.992-34.275 16.614-35.194 1.444-.505 5.955 1.392 6.251 2.649-2.201.691-13.404 21.011-19.109 36.598-4.188 11.513-9.443 27.176-7.82 28.229zm18.266-14.024c.062 1.874.986 2.897 2.127 2.838 4.12-.216 12.011-5.477 19.533-14.188.7.028.378 1.801.203 2.284-2.253 4.849-13.299 16.474-19.321 16.78-5.261.266-10.883-4.596-11.025-8.866-.358-10.74 10.954-31.51 20.526-32.124 5.325-.343 10.661 3.5 10.838 8.891.16 4.853-10.126 12.6-16.227 14.427-2.073.654-3.918.556-4.806.606-1.217 3.486-1.932 6.81-1.848 9.352zm15.04-29.091c-3.106.195-8.61 8.533-11.963 16.583 1.454-.218 2.339-.336 3.836-1.16 3.057-1.656 8.22-6.875 9.296-12.734.322-1.772-.155-2.753-1.169-2.689zm25.25-16.47c-1.18.828-7.845 12.593-7.816 13.472-1.078.069-3.141-.882-3.19-2.367-.04-1.215 2.373-12.818 4.067-13.477 1.693-.659 6.321.989 6.939 2.372zm14.905 26.482c-.303-1.483.702-9.599 1.29-12.981-5.155 5.509-10.921 13.692-15.137 22.638-1.543 3.279-4.78 11.055-4.682 14.035.011.338.09.81.159 1.009-2.869-.394-7.357-3.614-7.417-5.438-.1-3.04 6.521-25.712 11.044-33.056.179-.351.618-.515 1.061-.544 2.282-.147 6.489 2.237 6.446 2.853-.948.196-4.121 8.013-6.835 16.262 3.165-8.073 13.067-21.844 15.602-22.009 3.486-.228 8.167 3.025 8.469 4.512-.236.563-2.11 3.488-3.917 6.473-1.929 3.194-3.842 6.862-4.148 7.222-.501.167-1.856-.503-1.935-.976zm10.667 15.523c.062 1.914.986 2.96 2.127 2.898 4.12-.222 12.011-5.602 19.532-14.505.7.028.378 1.84.203 2.333-2.253 4.955-13.298 16.838-19.32 17.153-5.261.275-10.884-4.691-11.026-9.055-.358-10.975 10.955-32.202 20.526-32.831 5.324-.351 10.661 3.573 10.838 9.081.16 4.958-10.126 12.877-16.227 14.745-2.074.669-3.919.57-4.806.622-1.216 3.565-1.931 6.961-1.847 9.559zm15.04-29.731c-3.106.201-8.609 8.721-11.962 16.948 1.453-.223 2.339-.343 3.835-1.187 3.058-1.693 8.22-7.027 9.296-13.013.322-1.811-.155-2.813-1.169-2.748zM105.761 311.073c-27.841.259-38.141-28.752-38.883-49.912-.743-21.149 7.519-50.599 35.359-51.834 27.841-1.254 38.141 28.119 38.883 49.817.743 21.708-7.518 51.651-35.359 51.929zm-2.84-82.033c-13.54.512-13.833 18.329-13.374 31.519.465 13.347 1.99 30.982 15.53 30.762 13.54-.225 13.829-18.376 13.375-31.547-.459-13.322-1.991-31.25-15.531-30.734zm74.917 75.736 1.041 30.854-22.212.059-3.55-104.345 22.212-.844.039 5.69s7.335-8.35 15.55-8.674c19.778-.784 29.191 21.148 29.747 37.823.598 17.966-3.845 44.512-30.164 44.829-7.15.083-12.663-5.392-12.663-5.392zm-1.729-51.217.572 16.908c.299 8.851 1.633 21.325 12.587 21.13 10.042-.181 9.156-17.533 8.926-24.378-.235-7.004-.851-20.844-10.436-20.527-6.239.206-8.403 3.76-11.649 6.867zm74.233 15.825c-.126.813-.094 1.786-.067 2.595.245 7.451 3.488 18.086 12.16 17.916 6.846-.136 15.281-2.923 20.765-7.462l6.871 14.623c-7.089 6.681-18.476 12.245-27.757 12.37-23.428.308-33.598-21.775-34.314-43.323-.715-21.538 13.124-40.599 34.272-41.464 16.126-.666 29.68 13.227 30.696 30.449.297 4.429.588 8.694.732 13.129l-43.358 1.167zm11.378-29.1c-6.237.224-9.926 8.465-10.348 14.155l21.146-.667c-.36-6.357-3.952-13.736-10.798-13.488zm82.752 6.123c-.107-3.339-1.079-5.141-3.969-5.035-6.847.251-10.523 4.378-14.392 7.171l1.842 57.29-22.06.345-2.616-80.774 22.06-.919.192 5.972c4.599-3.844 10.986-8.942 17.071-9.205 19.626-.851 23.541 12.103 23.931 24.373l1.89 59.545-22.06.366-1.889-59.129zm43.573 24.538c-1.479-17.911-3.312-32.575-3.879-50.492-.294-9.295-.41-22.656 1.898-31.58l22.573-4.29c-1.913 11.866-3.36 24.036-2.987 35.944l1.565 49.877-19.17.541zm-3.36 23.791c-.24-7.611 6.43-13.361 13.428-13.535 6.846-.171 13.396 4.784 13.63 12.29.235 7.506-6.428 13.424-13.579 13.545-6.694.113-13.244-4.856-13.479-12.3z"/>
</g>
</g>
<g clip-path="url(#e)">
<g>
<path fill="#25272D" d="M206.785 198.184c-2.916.141-9.501-1.201-11.131-4.374-1.728-2.302-3.411-24.027-1.064-43.005-3.042.195-19.695 35.597-21.811 44.4-2.452.712-8.997-3.17-9.308-4.862-.693-3.575 1.652-18.674 2.561-23.72 1.939-10.24 4.638-22.452 6.649-26.866.297-.613.604-.963 1.232-1.138 1.764-.45 6.655 1.395 7.138 2.551-.495.364-.905 1.448-1.704 4.076-1.545 5.049-3.634 14.677-5.025 22.34-.755 3.996-1.49 8.517-2.109 12.766 6.29-13.077 16.509-30.23 21.73-33.684 1.119-.737 7.069.533 9.016 3.666-1.069 9.779-1.017 28.398.174 39.311 1.464-5.6 4.106-13.935 7.716-23.743 4.596-12.632 14.992-34.275 16.614-35.194 1.444-.505 5.955 1.392 6.251 2.649-2.201.691-13.404 21.011-19.109 36.598-4.188 11.512-9.443 27.175-7.82 28.229zm18.266-14.025c.062 1.874.986 2.897 2.127 2.838 4.12-.216 12.011-5.477 19.533-14.188.7.028.378 1.801.203 2.284-2.253 4.849-13.299 16.474-19.321 16.78-5.261.266-10.883-4.596-11.025-8.866-.358-10.74 10.954-31.51 20.526-32.124 5.325-.343 10.661 3.5 10.838 8.891.16 4.853-10.126 12.6-16.227 14.427-2.073.654-3.918.556-4.806.606-1.217 3.487-1.932 6.811-1.848 9.352zm15.04-29.091c-3.106.195-8.61 8.533-11.963 16.583 1.454-.218 2.339-.336 3.836-1.16 3.057-1.656 8.22-6.875 9.296-12.734.322-1.772-.155-2.753-1.169-2.689zm25.25-16.469c-1.18.828-7.845 12.593-7.816 13.472-1.078.069-3.141-.882-3.19-2.367-.04-1.215 2.373-12.818 4.067-13.477 1.693-.66 6.321.988 6.939 2.372zm14.905 26.481c-.303-1.483.702-9.599 1.29-12.981-5.155 5.509-10.921 13.692-15.137 22.638-1.543 3.279-4.78 11.055-4.682 14.035.011.338.09.81.159 1.009-2.869-.394-7.357-3.614-7.417-5.438-.1-3.04 6.521-25.712 11.044-33.056.179-.351.618-.515 1.061-.544 2.282-.147 6.489 2.237 6.446 2.853-.948.196-4.121 8.013-6.835 16.262 3.165-8.073 13.067-21.844 15.602-22.009 3.486-.228 8.167 3.025 8.469 4.512-.236.563-2.11 3.488-3.917 6.473-1.929 3.194-3.842 6.862-4.148 7.222-.501.167-1.856-.503-1.935-.976zm10.667 15.523c.062 1.914.986 2.96 2.127 2.898 4.12-.222 12.011-5.602 19.532-14.505.7.028.378 1.84.203 2.333-2.253 4.955-13.298 16.838-19.32 17.153-5.261.275-10.884-4.691-11.026-9.055-.358-10.975 10.955-32.202 20.526-32.831 5.324-.351 10.661 3.573 10.838 9.081.16 4.958-10.126 12.877-16.227 14.745-2.074.669-3.919.57-4.806.622-1.216 3.565-1.931 6.962-1.847 9.559zm15.04-29.73c-3.106.201-8.609 8.721-11.962 16.948 1.453-.223 2.339-.343 3.835-1.187 3.058-1.693 8.22-7.027 9.296-13.013.322-1.811-.155-2.813-1.169-2.748z"/>
<path fill="#930000" d="M103.858 308.028c-27.841.259-38.141-28.752-38.883-49.912-.743-21.149 7.519-50.599 35.359-51.834 27.841-1.254 38.141 28.119 38.883 49.817.743 21.708-7.518 51.651-35.359 51.929zm-2.84-82.033c-13.54.512-13.833 18.329-13.374 31.519.465 13.347 1.99 30.982 15.53 30.762 13.54-.225 13.829-18.376 13.375-31.547-.459-13.322-1.991-31.249-15.531-30.734zm74.917 75.736 1.041 30.854-22.212.059-3.55-104.345 22.212-.844.039 5.69s7.335-8.35 15.55-8.674c19.778-.784 29.191 21.148 29.746 37.823.598 17.966-3.845 44.512-30.164 44.829-7.149.084-12.662-5.392-12.662-5.392zm-1.729-51.216.572 16.908c.299 8.851 1.633 21.325 12.587 21.13 10.042-.181 9.156-17.533 8.926-24.378-.235-7.004-.851-20.844-10.436-20.527-6.239.206-8.403 3.759-11.649 6.867zm74.233 15.824c-.126.813-.094 1.786-.067 2.595.245 7.451 3.488 18.086 12.16 17.916 6.846-.136 15.281-2.923 20.765-7.462l6.871 14.623c-7.089 6.681-18.476 12.245-27.757 12.37-23.428.308-33.598-21.775-34.314-43.323-.715-21.538 13.124-40.599 34.272-41.464 16.126-.666 29.68 13.227 30.696 30.449.297 4.429.588 8.694.732 13.129l-43.358 1.167zm11.378-29.1c-6.237.224-9.926 8.465-10.348 14.155l21.146-.667c-.36-6.357-3.952-13.736-10.798-13.488zm82.752 6.124c-.107-3.339-1.079-5.141-3.969-5.035-6.847.251-10.523 4.378-14.392 7.171l1.842 57.29-22.06.345-2.616-80.774 22.06-.919.192 5.972c4.599-3.844 10.986-8.942 17.071-9.205 19.626-.851 23.541 12.103 23.931 24.373l1.89 59.545-22.06.366-1.889-59.129zm43.574 24.538c-1.479-17.911-3.312-32.575-3.879-50.492-.294-9.295-.41-22.656 1.898-31.58l22.573-4.29c-1.913 11.866-3.36 24.036-2.987 35.944l1.565 49.877-19.17.541zm-3.361 23.79c-.24-7.611 6.43-13.361 13.428-13.535 6.846-.171 13.396 4.784 13.63 12.29.235 7.506-6.428 13.424-13.579 13.545-6.694.113-13.244-4.856-13.479-12.3z"/>
</g>
</g>
<g clip-path="url(#e)">
<g>
<linearGradient id="j" gradientUnits="userSpaceOnUse" x1="237.159" y1="325.836" x2="257.24" y2="342.097">
<stop offset="0" stop-color="#dcd2d2"/>
<stop offset=".994" stop-color="#c8beb4"/>
</linearGradient>
<path fill="none" stroke="url(#j)" stroke-width="3.045" stroke-miterlimit="10" d="M248.443 349.861s-5.063-4.772-7.819-7.255c-2.756-2.484-4.818-6.371-4.974-9.373-.037-.709-.326-6.276 5.405-6.573 5.73-.297 6.393 4.046 6.393 4.046s.21-4.389 5.94-4.686c5.73-.297 6.019 5.269 6.056 5.979.156 3.002-1.493 7.082-3.977 9.837s-7.024 8.025-7.024 8.025z"/>
<linearGradient id="k" gradientUnits="userSpaceOnUse" x1="237.157" y1="327.926" x2="258.249" y2="345.007">
<stop offset="0" stop-color="#dcd2d2"/>
<stop offset=".994" stop-color="#c8beb4"/>
</linearGradient>
<path fill="none" stroke="url(#k)" stroke-width="3.045" stroke-miterlimit="10" d="M245.891 335.492c-3.415-1.114-4.809-1.993-8.679-1.755-3.743.23-5.603 2.529-4.582 4.469 1.093 2.077 4.656 2.275 7.527 1.142 0 0 3.348-1.354 7.584-3.036s7.204-3.532 9.332-3.642c4.257-.221 6.714 1.786 5.842 3.965s-4.395 2.745-7.368 1.915c-.001-.002-7.763-2.441-9.656-3.058z"/>
</g>
<g>
<linearGradient id="l" gradientUnits="userSpaceOnUse" x1="231.591" y1="335.582" x2="262.328" y2="335.582">
<stop offset="0" stop-color="#dcd2d2"/>
<stop offset=".994" stop-color="#c8beb4"/>
</linearGradient>
<linearGradient id="m" gradientUnits="userSpaceOnUse" x1="236.544" y1="327.285" x2="257.34" y2="344.126">
<stop offset="0" stop-color="#c8c3be"/>
<stop offset=".994" stop-color="#a05978"/>
</linearGradient>
<path fill="url(#l)" stroke="url(#m)" stroke-width="2.664" stroke-miterlimit="10" d="M245.13 334.731c-3.415-1.114-4.809-1.993-8.679-1.755-3.743.23-5.603 2.529-4.582 4.469 1.093 2.077 4.656 2.276 7.527 1.142 0 0 3.348-1.354 7.584-3.036s7.204-3.532 9.332-3.642c4.257-.221 6.714 1.786 5.842 3.965s-4.395 2.745-7.368 1.915c-.001-.002-7.763-2.441-9.656-3.058z"/>
<linearGradient id="n" gradientUnits="userSpaceOnUse" x1="234.876" y1="337.173" x2="258.694" y2="337.173">
<stop offset="0" stop-color="#dcd2d2"/>
<stop offset=".994" stop-color="#c8beb4"/>
</linearGradient>
<linearGradient id="o" gradientUnits="userSpaceOnUse" x1="236.55" y1="325.189" x2="256.336" y2="341.211">
<stop offset="0" stop-color="#c8c3be"/>
<stop offset=".994" stop-color="#a05978"/>
</linearGradient>
<path fill="url(#n)" stroke="url(#o)" stroke-width="2.664" stroke-miterlimit="10" d="M247.682 349.1s-5.063-4.772-7.819-7.255c-2.756-2.484-4.818-6.371-4.974-9.373-.037-.709-.326-6.276 5.405-6.573 5.73-.297 6.393 4.046 6.393 4.046s.21-4.389 5.94-4.686c5.73-.297 6.019 5.269 6.056 5.979.156 3.002-1.493 7.082-3.977 9.837-2.482 2.754-7.024 8.025-7.024 8.025z"/>
<linearGradient id="p" gradientUnits="userSpaceOnUse" x1="236.544" y1="327.285" x2="257.34" y2="344.126">
<stop offset="0" stop-color="#c8c3be"/>
<stop offset=".994" stop-color="#a05978"/>
</linearGradient>
<path fill="none" stroke="url(#p)" stroke-width="2.664" stroke-miterlimit="10" d="M245.13 334.731c-3.415-1.114-4.809-1.993-8.679-1.755-3.743.23-5.603 2.529-4.582 4.469 1.093 2.077 4.656 2.276 7.527 1.142 0 0 3.348-1.354 7.584-3.036s7.204-3.532 9.332-3.642c4.257-.221 6.714 1.786 5.842 3.965s-4.395 2.745-7.368 1.915c-.001-.002-7.763-2.441-9.656-3.058z"/>
</g>
</g>
<g clip-path="url(#e)">
<path opacity=".2" fill="#37383C" d="M47.932 126.181c1.743 1.426 2.476 4.909 2.476 4.65s4.609-9.431 6.492-12.373c.664-1.038 2.184-2.984 2.971-3.932.677-.817 2.855-3.141 2.855-3.141l-2.919.241-11.875 14.555zm362.993-41.876s.229 3.689 1.022 4.77c.513.7 3.117 4.17 4.472 6.232.737 1.122.753 1.924.844 2.006.116.103-1.198-.126-2.605 0-1.755.157-2.509 1.348-2.509 1.348l-6.017-13.946 4.793-.41z"/>
<path fill="#37383C" d="M122.964.53h-7.612s-22.295 40.058-27.05 47.824S75.308 70.224 74.357 70.7c-.951.475-7.29 14.263-9.984 16.482-2.694 2.219-12.52 23.455-12.52 23.455s-9.192 14.263-9.192 15.848 1.109 3.328 3.011 3.804c1.902.475 3.645-.792 4.596-2.377s14.58-24.881 14.897-25.515 1.585-.158 2.06-1.268 12.52-23.931 13.312-26.783c.792-2.853 23.138-40.254 24.723-43.424S122.964.53 122.964.53zM349.792 1h6.85s13.598 23.183 15.975 26.828c2.377 3.645 12.995 20.802 13.788 21.436.792.634 4.971 7.023 6.556 9.717 1.585 2.694 9.451 14.284 9.926 14.601.475.317 5.705 8.702 5.705 9.653 0 .951 3.962 10.294 4.754 10.928.792.634 3.011.789 3.17 2.69.159 1.902.317 5.545-1.109 6.02s-5.354 1.514-6.339-.001c-2.06-3.17-7.132-15.87-7.924-17.444-.792-1.574-2.694-4.744-3.17-5.695-.475-.951-16.957-24.406-17.116-25.199s-1.426-3.17-1.585-3.17-16.482-26.548-18.542-30.193S349.792 1 349.792 1z"/>
<path opacity=".5" fill="#9094A0" d="m68.149 86.617 1.612.645s-1.934 2.579-2.418 4.513c-.484 1.934-.161 4.352-1.934 5.158s-3.224 2.901-4.674 5.963c-1.451 3.062-6.608 10.476-7.253 12.411-.645 1.934-4.029 5.065-4.029 3.58 0-1.485 7.092-12.113 7.898-14.132s9.67-16.687 10.798-18.138zM380.16 49.54c-.35-1.268 2.632 2.399 5.23 4.049s11.526 16.497 12.5 17.246c.974.75 2.76 1.8 2.76 2.699s-1.786 1.35-2.922 1.8-.325-.3-.325-1.05-7.955-11.098-8.929-13.347c-.974-2.249-8.024-10.347-8.314-11.397z"/>
</g>
</g>
<g>
<path fill="#007199" d="M199.169 475.923 506 393l-.021 48.414L253.778 506h-54.59z"/>
<g fill="#FFF">
<path d="m278.416 489.219-.941-3.625c1.307.725 2.451.957 3.435.702a2.645 2.645 0 0 0 1.672-1.257 2.609 2.609 0 0 0 .294-2.062c-.162-.624-.504-1.343-1.027-2.157-.523-.813-1.736-2.251-3.642-4.316-1.904-2.063-3.209-3.663-3.915-4.798-.706-1.136-1.182-2.175-1.427-3.117-.476-1.832-.343-3.466.397-4.898s1.92-2.359 3.541-2.78c.916-.238 1.954-.252 3.114-.043l.858 3.306c-1.1-.31-1.99-.376-2.666-.2-1.768.459-2.426 1.553-1.977 3.279.165.637.514 1.365 1.045 2.184s1.746 2.248 3.644 4.285c1.897 2.035 3.196 3.627 3.897 4.771s1.176 2.192 1.424 3.149c.483 1.859.354 3.505-.386 4.938s-1.941 2.365-3.601 2.797c-1.195.309-2.441.256-3.739-.158zm14.921-3.132-6.23-23.983-4.183 1.087-.849-3.267 11.872-3.084.848 3.267-4.184 1.087 6.231 23.982-3.505.911zm10.577-2.748-7.079-27.25 2.929-.761c2.337-.607 4.298-.383 5.885.672 1.584 1.056 2.674 2.726 3.268 5.009.672 2.59.234 4.78-1.313 6.572 1.729.656 3.687 3.089 5.872 7.299l2.709 5.271-3.674.954-2.274-4.427c-1.608-3.099-2.808-5.022-3.599-5.774-.79-.751-1.585-.975-2.385-.668l3.167 12.191-3.506.912zm-.51-16.368.16-.042c1.965-.511 2.591-2.14 1.877-4.89-.76-2.92-2.177-4.119-4.252-3.594l2.215 8.526zm8.131-14.701 3.506-.91 5.316 20.46c.672 2.589 1.865 3.659 3.578 3.214.757-.196 1.29-.682 1.599-1.457.31-.773.311-1.752.004-2.934l-5.356-20.619 3.506-.91 5.258 20.238c.621 2.391.49 4.374-.391 5.948-.881 1.576-2.138 2.575-3.771 3-1.74.452-3.358.171-4.854-.844-1.498-1.015-2.519-2.571-3.063-4.669l-5.332-20.517zm32.968 15.335.957 3.686c-1.048 1.364-2.304 2.236-3.765 2.615-2.338.607-4.453-.119-6.35-2.178s-3.42-5.307-4.572-9.743c-1.151-4.435-1.412-8.066-.778-10.896.632-2.829 2.138-4.554 4.515-5.171 1.142-.297 2.52-.151 4.133.437l.92 3.546c-1.462-.825-2.776-1.086-3.945-.782-1.408.366-2.213 1.456-2.414 3.269-.203 1.814.195 4.645 1.194 8.488.988 3.805 2.019 6.458 3.089 7.964 1.072 1.504 2.345 2.064 3.818 1.682 1.009-.263 2.075-1.235 3.198-2.917zm6.641 3.464-6.23-23.983-4.183 1.086-.849-3.266 11.872-3.085.848 3.267-4.184 1.087 6.231 23.983-3.505.911zm3.298-29.946 3.506-.911 5.315 20.46c.673 2.589 1.865 3.659 3.578 3.215.757-.197 1.29-.683 1.6-1.457.309-.773.311-1.752.004-2.934l-5.357-20.619 3.506-.911 5.258 20.238c.621 2.391.49 4.374-.39 5.948-.882 1.576-2.138 2.576-3.771 3-1.74.453-3.357.172-4.854-.843-1.497-1.016-2.518-2.571-3.063-4.669l-5.332-20.517zm23.832 22.898-7.079-27.25 2.928-.761c2.338-.607 4.299-.383 5.885.672 1.584 1.055 2.674 2.726 3.268 5.009.673 2.59.234 4.78-1.313 6.572 1.73.656 3.688 3.089 5.872 7.299l2.71 5.271-3.674.954-2.275-4.428c-1.608-3.098-2.807-5.021-3.598-5.774-.791-.75-1.586-.974-2.385-.667l3.167 12.191-3.506.912zm-.509-16.369.159-.042c1.965-.511 2.591-2.14 1.877-4.89-.76-2.92-2.176-4.119-4.252-3.594l2.216 8.526zm15.37 12.508-7.08-27.25 9.701-2.521.848 3.267-6.194 1.609 2.116 8.147 5.678-1.475.848 3.267-5.676 1.475 2.416 9.303 6.534-1.697.849 3.267-10.04 2.608zm14.719-3.824-7.079-27.25 3.865-1.004c6.228-1.618 10.519 2.101 12.871 11.157 1.177 4.528 1.288 8.139.337 10.831-.952 2.693-2.829 4.404-5.631 5.132l-4.363 1.134zm2.659-4.178.518-.135c2.071-.538 3.329-1.712 3.774-3.521.443-1.809.191-4.54-.758-8.192-.99-3.812-2.096-6.405-3.318-7.782-1.223-1.375-2.889-1.79-5-1.241l-.598.155 5.382 20.716zm23.859-2.712-7.079-27.25 3.864-1.004c6.228-1.618 10.519 2.102 12.872 11.158 1.176 4.528 1.288 8.139.337 10.831-.952 2.693-2.83 4.403-5.632 5.132l-4.362 1.133zm2.658-4.176.518-.135c2.071-.538 3.329-1.713 3.774-3.522.443-1.809.191-4.54-.758-8.192-.99-3.811-2.097-6.405-3.319-7.781-1.222-1.376-2.888-1.79-5-1.242l-.597.156 5.382 20.716zm11.565.482-1.981-28.746 3.646-.947 12.22 26.086-3.387.88-2.543-5.782-5.06 1.314.492 6.314-3.387.881zm2.563-10.598 3.924-1.019-4.877-10.917-.1.025 1.053 11.911zm15.185 5.987-6.231-23.983-4.182 1.087-.849-3.267 11.872-3.085.848 3.268-4.184 1.086 6.231 23.984-3.505.91zm7.429-1.93-1.981-28.746 3.646-.947 12.22 26.086-3.386.88-2.544-5.783-5.06 1.314.492 6.315-3.387.881zm2.564-10.598 3.924-1.019-4.877-10.917-.1.025 1.053 11.911z"/>
</g>
<g fill="#FFF">
<path d="m238.596 496.385-7.1-14.237 2.012-.522 4.355 9.54.044-.012-.596-10.517 1.381-.359 4.544 9.73.044-.012-.783-10.707 2.011-.522.729 15.894-1.314.342-4.595-9.424-.044.011.628 10.455-1.316.34zm11.242-3.129-3.863-14.87 1.913-.497 3.863 14.87-1.913.497zm5.674-1.474-3.4-13.087-2.281.593-.464-1.783 6.479-1.684.463 1.783-2.282.594 3.399 13.087-1.914.497zm5.772-1.5-3.863-14.87 1.902-.494 1.7 6.544 2.848-.74-1.7-6.544 1.902-.494 3.863 14.87-1.902.494-1.7-6.544-2.848.74 1.7 6.544-1.902.494z"/>
</g>
</g>
</svg>
